<mxfile host="app.diagrams.net" modified="2024-03-16T12:58:15.771Z" agent="Mozilla/5.0 (Windows NT 10.0; Win64; x64) AppleWebKit/537.36 (KHTML, like Gecko) Chrome/122.0.0.0 Safari/537.36 Edg/122.0.0.0" version="24.0.7" etag="lLhN2z-ES3zTRMv97Tnx" type="github">
  <diagram name="第 1 页" id="uerf5AvDmMhw-SAlXfW_">
    <mxGraphModel>
      <root>
        <mxCell id="0" />
        <mxCell id="1" parent="0" />
      </root>
    </mxGraphModel>
  </diagram>
</mxfile>
